<?xml version="1.0" encoding="UTF-8"?>
<svg width="100px" height="43px" viewBox="0 0 100 43" version="1.1" xmlns="http://www.w3.org/2000/svg" xmlns:xlink="http://www.w3.org/1999/xlink">
    <!-- Generator: Sketch 46.2 (44496) - http://www.bohemiancoding.com/sketch -->
    <title>logo</title>
    <desc>Created with Sketch.</desc>
    <defs></defs>
    <g id="Page-1" stroke="none" stroke-width="1" fill="none" fill-rule="evenodd">
        <g id="Press-grid-page---webinars" transform="translate(-113.000000, -13.000000)">
            <g id="header">
                <g id="logo" transform="translate(113.000000, 13.000000)">
                    <polygon id="Fill-1" fill="#005A99" points="0 42.8204853 99.9144657 42.8204853 99.9144657 0 0 0"></polygon>
                    <g id="Group-36" transform="translate(11.678314, 8.434338)">
                        <path d="M56.0058859,21.6593151 C55.3700666,22.1640778 53.6351881,20.5083524 53.4801261,20.2936012 L53.4781797,20.2936012 C53.3224688,20.0794987 52.2869916,17.9170642 52.9610899,17.4680979 C53.9031406,16.8387666 56.2530769,18.1337618 56.3257419,18.225242 C56.3912703,18.3238588 56.896033,20.9579675 56.0058859,21.6593151 M57.9023144,17.081416 L57.9023144,17.081416 L57.900368,17.081416 L57.900368,17.0794696 L57.900368,17.081416 C55.4608979,15.4159586 53.7798695,15.0636628 52.5770031,16.1958105 C51.446153,17.2585371 52.1033826,19.2419041 53.0473796,20.6069693 C54.0562562,21.9279164 55.7372847,23.1658177 57.0978083,22.4184056 C58.5472168,21.624929 58.7301771,19.9166511 57.9023144,17.081416" id="Fill-2" fill="#FFFFFF"></path>
                        <path d="M60.0873269,15.4929706 L60.0866781,15.4929706 C57.9255412,14.4782549 56.548149,14.5405392 55.6917392,14.6962501 C55.6210206,14.709226 55.5652242,14.7423145 55.584688,14.7669687 C55.5996103,14.7864326 55.6190742,14.7929206 55.695632,14.8208188 C56.8388092,15.2470772 57.9145117,15.8076363 58.7138274,16.4895201 L58.7138274,16.4914665 C59.1160805,17.4614153 59.317207,18.6577938 59.3684618,19.8775288 C59.371057,19.959277 59.3717058,19.9793896 59.3859793,19.9988535 C59.402848,20.0248053 59.4515076,19.9826336 59.4871914,19.9184029 C59.8985275,19.1534733 60.3838264,17.861722 60.0873269,15.494917 C60.0860294,15.494917 60.0873269,15.4929706 60.0873269,15.4929706" id="Fill-4" fill="#AFDFF9"></path>
                        <path d="M61.8411502,14.2177636 L61.8411502,14.21971 C60.9691694,13.6721268 59.452935,13.6014081 58.4563855,13.893366 C58.3687981,13.9160738 58.331168,13.943972 58.3454415,13.9634359 C58.3571198,13.9816021 58.3856668,13.9932804 58.4408144,14.0082027 C59.7215362,14.3131365 60.3301061,14.593416 60.8939092,14.9080817 C61.0184779,15.5387107 61.0969821,16.2043746 60.9905797,17.5188337 C60.9879845,17.5746301 60.9892821,17.6044747 61.0035556,17.6219922 C61.0184779,17.6401584 61.0548104,17.6155042 61.10347,17.5382976 C61.6906297,16.6812391 62.0909364,15.2162594 61.8411502,14.21971 L61.8411502,14.2177636 Z" id="Fill-6" fill="#FFFFFF"></path>
                        <path d="M69.4727988,22.8345428 C69.7563223,23.5949308 67.6477378,24.7342153 67.3947076,24.8159635 C67.1410287,24.8983604 64.7657894,25.2162701 64.5471454,24.4357694 C64.240914,23.3457935 66.1976804,21.5103517 66.306678,21.4707752 C66.4202172,21.4376867 69.0828728,21.772465 69.4727988,22.8345428 M65.7058936,19.6171673 L65.7052449,19.6171673 L65.7052449,19.6184649 L65.7045961,19.6171673 L65.7052449,19.6184649 C63.3689332,21.4247108 62.5131723,22.913047 63.2177639,24.4078713 C63.8801839,25.8112153 65.9686557,25.799537 67.5588528,25.3246189 L67.5588528,25.3226725 C69.1269909,24.7718454 70.8235904,23.5560031 70.533579,22.0313343 C70.22605,20.4067511 68.657912,19.7054034 65.7058936,19.6171673" id="Fill-8" fill="#FFFFFF"></path>
                        <path d="M64.8701805,17.0484572 L64.8701805,17.0484572 C63.2378117,18.7911212 62.8718912,20.1205026 62.7538105,20.9821027 C62.7460249,21.0528214 62.7596496,21.1170521 62.7894942,21.1053738 C62.812202,21.0988858 62.8245291,21.0826659 62.8744864,21.0171376 C63.6335768,20.0614622 64.4984208,19.2102429 65.3944071,18.6633085 L65.3944071,18.6613621 C65.3944071,18.6613621 65.3944071,18.6633085 65.3963534,18.6633085 C66.4435089,18.5796139 67.6424825,18.759979 68.8187483,19.0856742 C68.8972525,19.1090308 68.9160676,19.1155188 68.9387754,19.1070845 C68.96862,19.0992989 68.943317,19.0402585 68.8940085,18.9857597 C68.2925754,18.3583748 67.2149265,17.4974235 64.8721269,17.0484572 L64.8701805,17.0484572 Z" id="Fill-10" fill="#AFDFF9"></path>
                        <path d="M64.1998453,14.9848991 L64.2004941,14.9861967 C63.4115591,15.647319 62.8756542,17.0662342 62.8458096,18.1043065 C62.8412681,18.1957867 62.8555416,18.2399047 62.8788982,18.2321192 C62.8990108,18.2269288 62.9178259,18.2022746 62.9489681,18.1549126 C63.6353934,17.0305504 64.0895501,16.5387636 64.5631706,16.0995293 C65.2028827,16.1780335 65.8594635,16.3077925 67.0766033,16.8138528 C67.1278582,16.8339655 67.1583515,16.841751 67.1778154,16.8339655 C67.201172,16.8274775 67.1881961,16.7827107 67.1298045,16.7126408 C66.4959316,15.891266 65.2275369,15.0569153 64.2017917,14.9861967 C64.2017917,14.9861967 64.1998453,14.9861967 64.1998453,14.9848991" id="Fill-12" fill="#FFFFFF"></path>
                        <path d="M74.7532134,10.3904556 C75.5648562,10.3560695 75.9963051,12.7131426 75.9950075,12.9784998 L75.9963051,12.9804462 C75.9963051,13.2458034 75.5635586,15.6028765 74.7538622,15.569788 C73.6223633,15.5243723 72.4824301,13.0965805 72.4772397,12.9804462 C72.4824301,12.8623655 73.6223633,10.4332761 74.7532134,10.3904556 M70.5302052,12.9784998 L70.5295564,12.9784998 L70.5302052,12.9804462 L70.5295564,12.9804462 L70.5302052,12.9804462 C71.5261059,15.759885 72.6770687,17.03347 74.3165742,16.8258555 C75.8561653,16.6286218 76.4900382,14.6407132 76.5289659,12.9804462 L76.5289659,12.9784998 C76.4893894,11.3182328 75.8574629,9.32837784 74.3165742,9.13309048 C72.6770687,8.92352962 71.5261059,10.1971147 70.5302052,12.9784998" id="Fill-14" fill="#FFFFFF"></path>
                        <path d="M67.8279731,12.9802516 L67.8279731,12.9802516 C68.9808822,15.070021 70.131845,15.8291114 70.9155896,16.207359 C70.9811179,16.2372036 71.0446999,16.2436916 71.0440511,16.2125494 C71.0440511,16.1878952 71.0317239,16.1716753 70.9856595,16.1042006 C70.3109124,15.0862409 69.770466,14.0014553 69.5252214,12.9802516 L69.5245726,12.9802516 L69.5252214,12.9783052 C69.7711148,11.9571015 70.31221,10.8723159 70.9856595,9.85435613 C71.0323727,9.78753023 71.0440511,9.76936396 71.0434023,9.74600733 C71.0446999,9.71486516 70.9811179,9.72200191 70.914292,9.75119769 C70.131845,10.1300941 68.9795846,10.8885357 67.8286219,12.9783052 C67.8299195,12.9783052 67.8279731,12.9783052 67.8279731,12.9802516" id="Fill-16" fill="#AFDFF9"></path>
                        <path d="M65.6586614,12.9802516 L65.6599589,12.9783052 C66.0440457,13.9339806 67.2287458,14.883168 68.2064802,15.2322198 C68.2908236,15.2653084 68.3388345,15.263362 68.3388345,15.2406541 C68.3394833,15.2192439 68.3219658,15.1932921 68.2869308,15.1485252 C67.4292235,14.1487318 67.1028795,13.5654649 66.8303855,12.9783052 C67.1028795,12.3950383 67.4292235,11.809825 68.2875796,10.8100315 C68.3219658,10.7659134 68.3388345,10.7393128 68.3368881,10.7185514 C68.3375369,10.6951948 68.2921212,10.6938972 68.2077778,10.7263369 C67.2287458,11.0753888 66.0440457,12.0245762 65.6599589,12.9783052 L65.6586614,12.9802516 Z" id="Fill-18" fill="#FFFFFF"></path>
                        <path d="M64.548962,1.52278729 C64.7669572,0.740989034 67.1434941,1.0588987 67.3952267,1.1406469 L67.3958755,1.1406469 C67.6495544,1.22304389 69.7581389,2.36232832 69.475913,3.12271633 C69.0827431,4.18479412 66.421385,4.51892367 66.3091435,4.4877815 C66.1988483,4.4469074 64.2407843,2.61146569 64.548962,1.52278729 M65.7064127,6.34009188 L65.7064127,6.34009188 L65.7077103,6.34009188 C68.6597286,6.25185573 70.2265691,5.54985929 70.5347468,3.92592483 C70.8241095,2.40125603 69.1281587,1.18346738 67.561967,0.634586616 L67.5600207,0.634586616 C65.968526,0.159019711 63.8800541,0.144097421 63.2195806,1.5487391 C62.5130426,3.04356331 63.3688035,4.53254837 65.7064127,6.34009188" id="Fill-20" fill="#FFFFFF"></path>
                        <path d="M64.8718674,8.90867221 L64.873165,8.90867221 C67.2172621,8.4597059 68.2942622,7.59875463 68.8956954,6.97136964 C68.9450038,6.91687084 68.9709557,6.85847927 68.9398135,6.85004494 C68.9171056,6.8416106 68.8982906,6.84809855 68.8197864,6.87145518 C67.6435206,7.19909677 66.444547,7.37751546 65.3973915,7.29576726 L65.3960939,7.29576726 L65.3954451,7.29446967 C64.4994589,6.74494011 63.6346149,5.89631594 62.8755245,4.94064057 C62.826216,4.87511225 62.8132401,4.85824357 62.7911811,4.85175562 C62.7613365,4.8407261 62.7477118,4.90430804 62.7554973,4.97632431 C62.8735781,5.83857317 63.2394986,7.1679546 64.8712186,8.90867221 C64.8718674,8.90737461 64.8718674,8.90867221 64.8718674,8.90867221" id="Fill-22" fill="#AFDFF9"></path>
                        <path d="M64.2022458,10.9722952 L64.201597,10.9709976 C65.2292887,10.9002789 66.4976834,10.0672259 67.1315563,9.2445535 C67.1880015,9.17448361 67.2029238,9.12971674 67.1795671,9.1219312 C67.1601033,9.11544325 67.1296099,9.12322879 67.0764087,9.14334144 C65.8599176,9.64940172 65.2046345,9.78045836 64.5636248,9.85766499 C64.0919506,9.41843062 63.6364964,8.92664383 62.9507198,7.8022817 C62.9195776,7.75491964 62.9001138,7.73156302 62.8787035,7.72702145 C62.8566445,7.71858711 62.8410734,7.7614076 62.8475614,7.85288772 C62.8767572,8.8903113 63.4133108,10.3118217 64.201597,10.9709976 C64.201597,10.9709976 64.201597,10.9722952 64.2022458,10.9722952" id="Fill-24" fill="#FFFFFF"></path>
                        <path d="M52.9629714,8.48740946 C52.2869268,8.03844316 53.3230527,5.87600865 53.4800612,5.66320382 L53.4800612,5.66125743 C53.635772,5.44650621 55.3719481,3.79272717 56.0064698,4.29619226 C56.8959681,4.99753991 56.3912054,7.63164855 56.3269747,7.73026543 C56.2536608,7.82174555 53.9037245,9.11674084 52.9629714,8.48740946 M57.9016007,8.8760378 L57.9022495,8.8760378 L57.9022495,8.87409142 C58.7301122,6.04015385 58.5471519,4.3325248 57.0983922,3.53710184 C55.7378686,2.79163612 54.0555426,4.02759104 53.0479636,5.34853813 C52.1046153,6.71554968 51.4460881,8.69697032 52.577587,9.75904812 C53.7798046,10.893791 55.4614818,10.5395488 57.9016007,8.8760378" id="Fill-26" fill="#FFFFFF"></path>
                        <path d="M60.0873269,10.4625368 L60.0879757,10.4625368 C60.3838264,8.09378539 59.8985275,6.80398047 59.4871914,6.03710451 C59.4515076,5.97287378 59.4041456,5.93070209 59.3859793,5.9566539 C59.3723546,5.97611776 59.3717058,5.997528 59.3691106,6.07797861 C59.3178558,7.29771364 59.1167293,8.49409205 58.715125,9.46404092 L58.715125,9.46598731 L58.7138274,9.46598731 C57.9151605,10.1478711 56.839458,10.7084302 55.6962808,11.1346886 C55.6190742,11.1625868 55.5996103,11.1690748 55.5859856,11.1885386 C55.5665218,11.2131929 55.6223182,11.2462814 55.6936856,11.2592573 C56.5494465,11.4149682 57.9268388,11.4772525 60.0866781,10.4638344 C60.0866781,10.4625368 60.0873269,10.4625368 60.0873269,10.4625368" id="Fill-28" fill="#AFDFF9"></path>
                        <path d="M61.8427722,11.7377438 L61.8414746,11.7377438 C62.0919096,10.7398967 61.6909541,9.27426832 61.105092,8.41850741 C61.0557836,8.34130077 61.0175047,8.31534897 61.0032312,8.33481282 C60.9902553,8.3516815 60.9889577,8.38087728 60.9915529,8.43797126 C61.0979553,9.75113281 61.0181535,10.4148503 60.8935848,11.0493721 C60.3317281,11.3627402 59.7231582,11.6423709 58.4411388,11.9492511 C58.3872888,11.962227 58.358093,11.9739053 58.3464147,11.9920715 C58.33279,12.0115354 58.3684737,12.0394336 58.4573587,12.0621414 C59.4526106,12.3540993 60.9707914,12.2833806 61.8414746,11.7377438 L61.8427722,11.7377438 Z" id="Fill-30" fill="#FFFFFF"></path>
                        <path d="M33.879568,19.9996969 L33.879568,7.42020618 L30.9781557,7.42020618 L30.9781557,22.7097146 L41.9298192,22.7097146 L41.9298192,19.9996969 L33.879568,19.9996969 Z M20.9017169,16.8796407 C20.2626536,15.3867628 16.8551811,7.42020618 16.8551811,7.42020618 L13.870723,7.42020618 L20.4118765,22.7097146 L21.4447586,22.7097146 L27.887944,7.42020618 L24.9145154,7.42020618 C24.9145154,7.42020618 21.5355899,15.3848164 20.9017169,16.8796407 L20.9017169,16.8796407 Z" id="Fill-32" fill="#FFFFFF"></path>
                        <path d="M9.61001985,16.491207 L5.73022437,16.491207 C6.06240752,15.7029208 7.13227086,13.1680778 7.60848656,12.0378765 C8.11195166,13.1589946 9.25123609,15.6938376 9.61001985,16.491207 L9.61001985,16.491207 Z M8.60373845,7.41975203 L6.59506841,7.41975203 L0.0818130787,22.7099093 L3.10779404,22.7099093 C3.10779404,22.7099093 4.419658,19.5963409 4.60521343,19.1584042 L10.8096422,19.1584042 C11.0010368,19.5840138 12.4063273,22.7099093 12.4063273,22.7099093 L15.4271179,22.7099093 L8.60373845,7.41975203 Z" id="Fill-34" fill="#FFFFFF"></path>
                    </g>
                </g>
            </g>
        </g>
    </g>
</svg>