<?xml version="1.0" encoding="utf-8"?>
<!-- Generator: Adobe Illustrator 23.0.1, SVG Export Plug-In . SVG Version: 6.00 Build 0)  -->
    <svg version="1.1" id="bosch-lifeclip" xmlns="http://www.w3.org/2000/svg" x="0px" y="0px" viewBox="0 0 435 155"
         style="enable-background:new 0 0 435 155;" xml:space="preserve">
<style type="text/css">
	.anker{fill:#606061;}
	.bosch{fill-rule:evenodd;clip-rule:evenodd;fill:#EA0016;}
	.claim{fill:#000000;}

	.st0{fill-rule:evenodd;clip-rule:evenodd;fill:#FFFFFF;}
	.st1{fill:url(#SVGID_1_);}
	.st2{fill:#942432;}
	.st3{fill:#B22739;}
	.st4{fill:#931915;}
	.st5{fill:#AF1A19;}
	.st6{fill:#D5151A;}
	.st7{fill:url(#SVGID_2_);}
	.st8{fill:url(#SVGID_3_);}
	.st9{fill:url(#SVGID_4_);}
	.st10{fill:url(#SVGID_5_);}
	.st11{fill:url(#SVGID_6_);}
	.st12{fill:#253783;}
	.st13{fill:url(#SVGID_7_);}
	.st14{fill:url(#SVGID_8_);}
	.st15{fill:url(#SVGID_9_);}
	.st16{fill:url(#SVGID_10_);}
	.st17{fill:url(#SVGID_11_);}
	.st18{fill:url(#SVGID_12_);}
	.st19{fill:#159A39;}
	.st20{fill:url(#SVGID_13_);}
	.st21{fill:url(#SVGID_14_);}
	.st22{fill:url(#SVGID_15_);}
	.st23{fill:url(#SVGID_16_);}
	.st24{fill:url(#SVGID_17_);}
	.st25{fill:url(#SVGID_18_);}
	.st26{fill:url(#SVGID_19_);}
	.st27{fill:url(#SVGID_20_);}
	.st28{fill:url(#SVGID_21_);}
	.st29{fill:url(#SVGID_22_);}
	.st30{fill:url(#SVGID_23_);}
	.st31{fill:url(#SVGID_24_);}
	.st32{fill:url(#SVGID_25_);}
	.st33{fill:url(#SVGID_26_);}
	.st34{fill:url(#SVGID_27_);}
	.st35{fill:url(#SVGID_28_);}
	.st36{fill:url(#SVGID_29_);}
	.st37{fill:url(#SVGID_30_);}
	.st38{fill:url(#SVGID_31_);}
	.st39{fill:url(#SVGID_32_);}
	.st40{fill:url(#SVGID_33_);}
	.st41{fill:url(#SVGID_34_);}
	.st42{fill:url(#SVGID_35_);}
	.st43{fill:url(#SVGID_36_);}
	.st44{fill:url(#SVGID_37_);}
	.st45{fill:url(#SVGID_38_);}
	.st46{fill:url(#SVGID_39_);}
	.st47{fill:url(#SVGID_40_);}
	.st48{fill:url(#SVGID_41_);}
	.st49{fill:url(#SVGID_42_);}
	.st50{fill:url(#SVGID_43_);}
	.st51{fill:url(#SVGID_44_);}
	.st52{fill:url(#SVGID_45_);}
	.st53{fill:url(#SVGID_46_);}
	.st54{fill:url(#SVGID_47_);}
	.st55{fill:url(#SVGID_48_);}
	.st56{fill:url(#SVGID_49_);}
	.st57{fill:url(#SVGID_50_);}
	.st58{fill:url(#SVGID_51_);}
	.st59{fill:url(#SVGID_52_);}
	.st60{fill:url(#SVGID_53_);}
	.st61{fill:url(#SVGID_54_);}
	.st62{fill:url(#SVGID_55_);}
	.st63{fill:url(#SVGID_56_);}
</style>
    <g id="box">
        <g id="claim-english">
            <path class="claim" d="M147.66699,107.6748v27.80957h-3.22852V107.6748H147.66699z"/>
            <path class="claim" d="M157.896,115.14258v3.11133c1.24463-2.29492,3.30615-3.46191,6.18408-3.46191
                c4.35645,0,6.729,2.83984,6.729,8.09082v12.60156h-3.22852v-12.83496c0-3.50098-1.32227-5.05664-4.31689-5.05664
                c-3.26758,0-5.36768,2.13965-5.36768,5.44531v12.44629h-3.22803v-20.3418H157.896z"/>
            <path class="claim" d="M178.39355,115.14258l5.44531,17.07422l5.32861-17.07422h3.34473l-6.84521,20.3418h-3.81201
                l-6.96191-20.3418H178.39355z"/>
            <path class="claim" d="M213.16455,132.25586c-1.8667,2.68359-4.47266,3.57812-7.73975,3.57812
                c-6.45654,0-10.07373-4.23926-10.07373-10.46191c0-6.2627,3.77246-10.58008,9.25684-10.58008
                c5.40625,0,8.7124,3.8125,8.7124,10.11328v1.0498H198.6958c0.07764,2.91699,0.73926,4.55078,2.13916,5.83398
                c1.05029,0.93359,2.41162,1.36133,4.51172,1.36133c2.25586,0,3.88965-0.62207,5.44531-2.7998L213.16455,132.25586z
                 M210.01416,123.34961c-0.42773-4.16211-1.9834-5.87305-5.36719-5.87305c-3.22852,0-5.09521,1.90527-5.83447,5.87305H210.01416z"
                />
            <path class="claim" d="M222.69336,115.14258v3.11133c1.24414-2.29492,3.30566-3.46191,6.18359-3.46191
                c4.35645,0,6.72852,2.83984,6.72852,8.09082v12.60156h-3.22754v-12.83496c0-3.50098-1.32227-5.05664-4.31738-5.05664
                c-3.26758,0-5.36719,2.13965-5.36719,5.44531v12.44629h-3.22852v-20.3418H222.69336z"/>
            <path class="claim" d="M243.9668,115.14258v-5.29004l3.22754-0.77734v6.06738h5.13477v2.68359h-5.13477v12.40723
                c0,1.9834,0.73926,2.91699,2.33398,2.91699c1.0498,0,1.82812-0.27148,2.76172-0.97168l1.24414,2.2168
                c-1.36133,1.0498-2.52734,1.43848-4.2002,1.43848c-3.30566,0-5.36719-1.90527-5.36719-4.97852v-13.0293h-3.1123v-2.68359H243.9668
                z"/>
            <path class="claim" d="M274.61426,132.25586c-1.86719,2.68359-4.47266,3.57812-7.74023,3.57812
                c-6.45605,0-10.07324-4.23926-10.07324-10.46191c0-6.2627,3.77246-10.58008,9.25684-10.58008
                c5.40625,0,8.71191,3.8125,8.71191,10.11328v1.0498h-14.62402c0.07812,2.91699,0.73926,4.55078,2.13965,5.83398
                c1.0498,0.93359,2.41113,1.36133,4.51172,1.36133c2.25586,0,3.88867-0.62207,5.44531-2.7998L274.61426,132.25586z
                 M271.46387,123.34961c-0.42773-4.16211-1.9834-5.87305-5.36719-5.87305c-3.22852,0-5.0957,1.90527-5.83398,5.87305H271.46387z"/>
            <path class="claim" d="M294.64453,132.2168c-1.51758,2.37305-3.8125,3.61719-6.72949,3.61719
                c-5.28906,0-8.71191-4.16113-8.71191-10.61816c0-6.30078,3.46191-10.42383,8.67383-10.42383
                c2.87793,0,5.21094,1.28418,6.76758,3.69531v-12.29102h3.22754v29.28809h-3.22754V132.2168z M282.54785,125.41113
                c0,5.13379,1.94434,7.73926,5.83398,7.73926c4.08398,0,6.37891-2.83887,6.37891-7.81738c0-4.8623-2.37207-7.85645-6.26172-7.85645
                C284.6875,117.47656,282.54785,120.35449,282.54785,125.41113z"/>
            <path class="claim" d="M318.79688,115.14258v-2.83984c0-4.16113,2.2168-6.53418,6.02832-6.53418
                c1.36133,0,2.4502,0.27246,3.65625,0.93359l-0.81738,2.48926c-1.20508-0.58301-1.75-0.73926-2.68359-0.73926
                c-1.86719,0-2.95605,1.32324-2.95605,3.50098v3.18945h4.66797v2.68359h-4.66797v17.6582h-3.22754v-17.6582h-2.91797v-2.68359
                H318.79688z"/>
            <path class="claim" d="M348.08398,125.29395c0,6.14551-4.00586,10.54004-9.64551,10.54004
                c-5.52344,0-9.56836-4.43359-9.56836-10.50098c0-6.14551,4.00586-10.54102,9.68457-10.54102
                C344.07812,114.79199,348.08398,119.22656,348.08398,125.29395z M332.21484,125.37207c0,4.78418,2.41113,7.77832,6.22363,7.77832
                c3.85059,0,6.30078-3.0332,6.30078-7.81738c0-4.74512-2.4502-7.85645-6.18457-7.85645
                C334.62598,117.47656,332.21484,120.43262,332.21484,125.37207z"/>
            <path class="claim" d="M356.05664,115.14258v3.2666c1.32227-2.4502,3.07227-3.61719,5.44531-3.61719
                c1.24414,0,2.2168,0.2334,3.30566,0.81738l-1.32227,2.72266c-0.89453-0.4668-1.43848-0.62207-2.37207-0.62207
                c-3.15039,0-5.05664,2.52734-5.05664,6.61133v11.16309h-3.22852v-20.3418H356.05664z"/>
            <path class="claim" d="M387.52148,134.8623c-0.97266,0.58301-1.98438,0.93359-3.5791,0.93359
                c-2.95508,0-4.93945-1.32324-4.93945-5.36816v-24.23145h3.22852v24.50391c0,1.90625,1.01172,2.41113,2.2168,2.41113
                c0.93359,0,1.51758-0.27148,2.02246-0.66113L387.52148,134.8623z"/>
            <path class="claim" d="M395.96094,108.80273c0,1.16699-0.97266,2.13867-2.13965,2.13867s-2.13867-0.97168-2.13867-2.13867
                s0.97168-2.13965,2.13867-2.13965S395.96094,107.63574,395.96094,108.80273z M395.49414,115.14258v20.3418h-3.22852v-20.3418
                H395.49414z"/>
            <path class="claim" d="M403.93359,115.14258v-2.83984c0-4.16113,2.2168-6.53418,6.02832-6.53418
                c1.36133,0,2.4502,0.27246,3.65625,0.93359l-0.81738,2.48926c-1.20508-0.58301-1.75-0.73926-2.68359-0.73926
                c-1.86719,0-2.95605,1.32324-2.95605,3.50098v3.18945h4.66797v2.68359h-4.66797v17.6582h-3.22754v-17.6582h-2.91797v-2.68359
                H403.93359z"/>
            <path class="claim" d="M431.89844,132.25586c-1.86719,2.68359-4.47266,3.57812-7.74023,3.57812
                c-6.45605,0-10.07324-4.23926-10.07324-10.46191c0-6.2627,3.77246-10.58008,9.25684-10.58008
                c5.40625,0,8.71191,3.8125,8.71191,10.11328v1.0498h-14.62402c0.07812,2.91699,0.73926,4.55078,2.13965,5.83398
                c1.0498,0.93359,2.41113,1.36133,4.51172,1.36133c2.25586,0,3.88965-0.62207,5.44531-2.7998L431.89844,132.25586z
                 M428.74805,123.34961c-0.42773-4.16211-1.9834-5.87305-5.36719-5.87305c-3.22852,0-5.0957,1.90527-5.83398,5.87305H428.74805z"/>
        </g>
        <g id="bosch">
        <g>
            <path class="bosch" d="M185.19998,46.7c0,0,8.79999-3,8.79999-13c0-11.7-8.29999-17.5-19.70001-17.5h-29.89996v63.59999h32.5
                c10,0,19.79999-7,19.79999-17.7C196.69998,49.39999,185.19998,46.8,185.19998,46.7z M160,29.39999h11.60001
                c3.60001,0,6,2.39999,6,6c0,2.8-2.20001,5.8-6.29999,5.8h-11.39999L160,29.39999L160,29.39999z M171.69998,66.5h-11.60001V54
                h11.30002c5.70001,0,8.39999,2.5,8.39999,6.2C179.79999,64.8,176.39999,66.5,171.69998,66.5z"/>
            <path class="bosch" d="M231.10001,14.60001c-18.39999,0-29.20001,14.7-29.20001,33.3c0,18.7,10.79999,33.3,29.20001,33.3
                c18.5,0,29.20001-14.60001,29.20001-33.3C260.29999,29.3,249.60001,14.60001,231.10001,14.60001z M231.10001,66
                c-9,0-13.5-8.10001-13.5-18.10001s4.5-18,13.5-18s13.60001,8.10001,13.60001,18C244.69998,58,240.10001,66,231.10001,66z"/>
            <path class="bosch" d="M294.19998,41.2l-2.20001-0.5c-5.39999-1.10001-9.70001-2.5-9.70001-6.39999
                c0-4.2,4.10001-5.89999,7.70001-5.89999c5.29999,0,10,2.60001,13,5.89999l9.89999-9.8c-4.5-5.10001-11.79999-10-23.20001-10
                c-13.39999,0-23.60001,7.5-23.60001,20c0,11.39999,8.20001,17,18.20001,19.10001l2.20001,0.5c8.29999,1.7,11.39999,3,11.39999,7
                c0,3.8-3.39999,6.3-8.60001,6.3c-6.20001,0-11.79999-2.7-16.10001-8.2l-10.10001,10
                c5.60001,6.7,12.70001,11.89999,26.39999,11.89999c11.89999,0,24.60001-6.8,24.60001-20.7
                C314.29999,45.89999,303.29999,43.10001,294.19998,41.2z"/>
            <path class="bosch" d="M349.69998,66c-7,0-14.29999-5.8-14.29999-18.5c0-11.3,6.79999-17.60001,13.89999-17.60001
                c5.60001,0,8.89999,2.60001,11.5,7.10001l12.79999-8.5c-6.39999-9.7-14-13.8-24.5-13.8
                c-19.20001,0-29.60001,14.89999-29.60001,32.90001c0,18.89999,11.5,33.7,29.39999,33.7
                c12.60001,0,18.60001-4.39999,25.10001-13.8l-12.89999-8.7C358.5,63,355.69998,66,349.69998,66z"/>
            <polygon class="bosch" points="416.30002,16.2 416.30002,39.60001 396.99997,39.60001 396.99997,16.2 380.29999,16.2
                380.29999,79.8 396.99997,79.8 396.99997,54.7 416.30002,54.7 416.30002,79.8 432.99997,79.8 432.99997,16.2 			"/>
        </g>
            <g>
            <path class="bosch" d="M185.19998,46.7c0,0,8.79999-3,8.79999-13c0-11.7-8.29999-17.5-19.70001-17.5h-29.89996v63.59999h32.5
                c10,0,19.79999-7,19.79999-17.7C196.69998,49.39999,185.19998,46.8,185.19998,46.7z M160,29.39999h11.60001
                c3.60001,0,6,2.39999,6,6c0,2.8-2.20001,5.8-6.29999,5.8h-11.39999L160,29.39999L160,29.39999z M171.69998,66.5h-11.60001V54
                h11.30002c5.70001,0,8.39999,2.5,8.39999,6.2C179.79999,64.8,176.39999,66.5,171.69998,66.5z"/>
                <path class="bosch" d="M231.10001,14.60001c-18.39999,0-29.20001,14.7-29.20001,33.3c0,18.7,10.79999,33.3,29.20001,33.3
                c18.5,0,29.20001-14.60001,29.20001-33.3C260.29999,29.3,249.60001,14.60001,231.10001,14.60001z M231.10001,66
                c-9,0-13.5-8.10001-13.5-18.10001s4.5-18,13.5-18s13.60001,8.10001,13.60001,18C244.69998,58,240.10001,66,231.10001,66z"/>
                <path class="bosch" d="M294.19998,41.2l-2.20001-0.5c-5.39999-1.10001-9.70001-2.5-9.70001-6.39999
                c0-4.2,4.10001-5.89999,7.70001-5.89999c5.29999,0,10,2.60001,13,5.89999l9.89999-9.8c-4.5-5.10001-11.79999-10-23.20001-10
                c-13.39999,0-23.60001,7.5-23.60001,20c0,11.39999,8.20001,17,18.20001,19.10001l2.20001,0.5c8.29999,1.7,11.39999,3,11.39999,7
                c0,3.8-3.39999,6.3-8.60001,6.3c-6.20001,0-11.79999-2.7-16.10001-8.2l-10.10001,10
                c5.60001,6.7,12.70001,11.89999,26.39999,11.89999c11.89999,0,24.60001-6.8,24.60001-20.7
                C314.29999,45.89999,303.29999,43.10001,294.19998,41.2z"/>
                <path class="bosch" d="M349.69998,66c-7,0-14.29999-5.8-14.29999-18.5c0-11.3,6.79999-17.60001,13.89999-17.60001
                c5.60001,0,8.89999,2.60001,11.5,7.10001l12.79999-8.5c-6.39999-9.7-14-13.8-24.5-13.8
                c-19.20001,0-29.60001,14.89999-29.60001,32.90001c0,18.89999,11.5,33.7,29.39999,33.7
                c12.60001,0,18.60001-4.39999,25.10001-13.8l-12.89999-8.7C358.5,63,355.69998,66,349.69998,66z"/>
                <polygon class="bosch" points="416.30002,16.2 416.30002,39.60001 396.99997,39.60001 396.99997,16.2 380.29999,16.2
                380.29999,79.8 396.99997,79.8 396.99997,54.7 416.30002,54.7 416.30002,79.8 432.99997,79.8 432.99997,16.2 			"/>
        </g>
    </g>
        <g id="anker">
        <g>
            <path class="anker" d="M48.2,0C21.59999,0,0,21.60001,0,48.2s21.60001,48.2,48.2,48.2s48.2-21.60001,48.2-48.2S74.79999,0,48.2,0
                z M48.2,91.89999c-24.10001,0-43.7-19.60001-43.7-43.7S24.10001,4.5,48.2,4.5s43.7,19.60001,43.7,43.7
                S72.29999,91.89999,48.2,91.89999z"/>
            <path class="anker" d="M68.09999,18.10001h-3.3v16.5H31.69998v-16.5h-3.39999c-9.7,6.5-16.2,17.5-16.2,30.10001
                s6.5,23.60001,16.2,30.10001h3.39999v-16.5h33.10001v16.5h3.3c9.8-6.5,16.2-17.5,16.2-30.10001
                S77.89999,24.60001,68.09999,18.10001z M27.09999,71.8c-6.7-5.89999-10.60001-14.39999-10.60001-23.60001
                c0-9.2,3.89999-17.7,10.60001-23.60001V71.8z M64.79999,57.2H31.69998V39.09999h33.10001V57.2z M69.29999,71.7v-10l0,0V34.59999
                l0,0v-10c6.60001,5.89999,10.5,14.39999,10.5,23.5C79.79999,57.3,75.89999,65.8,69.29999,71.7z"/>
        </g>
            <g>
            <path class="anker" d="M48.2,0C21.59999,0,0,21.60001,0,48.2s21.60001,48.2,48.2,48.2s48.2-21.60001,48.2-48.2S74.79999,0,48.2,0
                z M48.2,91.89999c-24.10001,0-43.7-19.60001-43.7-43.7S24.10001,4.5,48.2,4.5s43.7,19.60001,43.7,43.7
                S72.29999,91.89999,48.2,91.89999z"/>
                <path class="anker" d="M68.09999,18.10001h-3.3v16.5H31.69998v-16.5h-3.39999c-9.7,6.5-16.2,17.5-16.2,30.10001
                s6.5,23.60001,16.2,30.10001h3.39999v-16.5h33.10001v16.5h3.3c9.8-6.5,16.2-17.5,16.2-30.10001
                S77.89999,24.60001,68.09999,18.10001z M27.09999,71.8c-6.7-5.89999-10.60001-14.39999-10.60001-23.60001
                c0-9.2,3.89999-17.7,10.60001-23.60001V71.8z M64.79999,57.2H31.69998V39.09999h33.10001V57.2z M69.29999,71.7v-10l0,0V34.59999
                l0,0v-10c6.60001,5.89999,10.5,14.39999,10.5,23.5C79.79999,57.3,75.89999,65.8,69.29999,71.7z"/>
        </g>
    </g>
</g>
</svg>
