<?xml version="1.0" encoding="utf-8"?>
<!-- Generator: Adobe Illustrator 21.0.0, SVG Export Plug-In . SVG Version: 6.00 Build 0)  -->
<svg version="1.1" id="レイヤー_1" xmlns="http://www.w3.org/2000/svg" xmlns:xlink="http://www.w3.org/1999/xlink" x="0px"
	 y="0px" viewBox="0 0 433.4 164.7" style="enable-background:new 0 0 433.4 164.7;" xml:space="preserve">
<style type="text/css">
	.st0{fill:#DC0032;}
</style>
<title>Artboard 1</title>
<path class="st0" d="M413,128.1c4.5,0,6.6,2.4,6.6,8.9h-14.4C405.6,130.3,408.4,128.1,413,128.1 M424.9,138.6c0-10.2-4.3-14-11.8-14
	c-7.1,0-13.4,3.4-13.4,14.5c0,10.6,5.7,14.2,14.6,14.2c3.2,0,6.4-0.4,9.6-1.1v-4.8c-3,1.2-6.2,1.8-9.5,1.9c-5.7,0-9.2-2.5-9.5-8.6
	h19.8C424.8,140,424.9,139.3,424.9,138.6 M394.8,124.5c-3.2,0.1-6.3,1.5-8.5,3.8V125h-6.2l-0.2,0.7c0.8,1.1,2.1,2.9,2.1,4.6v22.5h5
	v-22.2c1.9-0.7,4-1,6-1.1c1.4,0,2.7,0.1,4.1,0.2l0.4-4.8C396.6,124.7,395.7,124.6,394.8,124.5 M361.8,149.7c-5.7,0-8.3-3.3-8.3-10.8
	c0-7.3,2.7-10.7,8.3-10.7s8.2,3.2,8.2,10.8S367.6,149.8,361.8,149.7 M361.8,153.3c9,0,13.6-4.8,13.6-14.3s-4.6-14.3-13.6-14.3
	S348,129.5,348,139S352.8,153.3,361.8,153.3 M332.1,153.3c3.8-0.1,7.6-0.6,11.3-1.7l-0.7-5.2c-3.2,1.9-6.9,2.8-10.7,2.8
	c-9.3,0-13.2-4.6-13.2-15.8s3.9-15.8,13.2-15.8c3.7,0,7.4,1,10.7,2.8l0.7-5.1c-3.7-1.1-7.5-1.7-11.3-1.8c-12.7,0-19.2,6.7-19.2,19.9
	S319.4,153.3,332.1,153.3 M283.2,128.2c4.5,0,6.6,2.4,6.6,8.9h-14.4C275.8,130.3,278.6,128.2,283.2,128.2 M295.1,138.6
	c0-10.2-4.3-14-11.8-14c-7.1,0-13.4,3.4-13.4,14.5c0,10.6,5.7,14.2,14.6,14.2c3.2,0,6.4-0.4,9.6-1.1v-4.8c-3,1.2-6.2,1.8-9.5,1.9
	c-5.7,0-9.2-2.5-9.5-8.6H295C295.1,140,295.2,139.3,295.1,138.6 M254.3,124.6c-3.3,0.2-6.5,1.1-9.4,2.7V114H238l-0.2,0.7
	c0.8,1.2,2.1,3,2.1,4.7v33.5h5v-22.4c2.5-1.2,5.2-1.9,7.9-2c4.3,0,5.8,1.6,5.8,6.2v18.2h5v-18.6
	C263.7,127.7,260.8,124.6,254.3,124.6 M233.7,148.5c-1.8,0.6-3.6,0.9-5.5,0.9c-3.3,0-4.9-1.6-4.9-4.7v-16.1h10v-3.6h-10v-7.3
	l-4.9,1.5v5.8h-4.5v3.6h4.5v15.2c0,6.4,2.8,9.4,8.9,9.4c2.2,0,4.3-0.2,6.4-0.8L233.7,148.5z M178.2,138.8c0-7.2,2.6-10.3,8.7-10.3
	c2.1,0,4.1,0.2,6.2,0.6v19.1c-2,0.5-4.1,0.8-6.2,0.8C180.8,148.9,178.2,145.9,178.2,138.8 M186.9,124.6c-9.6,0-14.1,4.5-14.1,14.1
	s4.4,14.1,13.6,14.1c2.3,0,4.6-0.5,6.7-1.4v2.6c0,5.1-1.7,6.8-6.8,6.8c-3.6-0.1-7.1-1-10.3-2.6v4.9c3.4,0.8,6.8,1.3,10.3,1.3
	c8.1,0,11.8-3.7,11.8-11.6v-26.3C194.5,125.3,190.7,124.6,186.9,124.6 M157.1,124.6c-3.5,0.2-6.9,1.2-9.9,2.9v-2.5h-6.3l-0.2,0.7
	c0.8,1.1,2.1,3,2.1,4.6v22.5h5v-22.4c2.5-1.2,5.1-1.9,7.9-2c4.3,0,5.8,1.6,5.8,6.2v18.2h5v-18.6
	C166.4,127.7,163.5,124.6,157.1,124.6 M134.3,125.1h-6.9l-0.2,0.7c0.8,1.1,2.1,2.9,2.1,4.6v22.5h5V125.1z M131.6,120.9
	c2.1,0,3.2-1.1,3.2-3.1s-1.1-3.1-3.2-3.1s-3.3,1.1-3.3,3.1S129.4,120.9,131.6,120.9 M123,148.5c-1.8,0.6-3.6,0.9-5.5,0.9
	c-3.3,0-4.8-1.6-4.8-4.7v-16.1h9.8v-3.6h-9.8v-7.3l-5,1.5v24.6c0,6.4,2.8,9.4,8.9,9.4c2.2,0,4.3-0.2,6.4-0.8L123,148.5z
	 M103.3,125.1h-8.7V121c0-2.7,1.2-3.8,4-3.8c1.5,0,2.9,0.3,4.3,0.7v-3.7c-1.7-0.5-3.5-0.7-5.3-0.7c-5.5,0-8,2.7-8,8.6v2.9h-5.6v3.6
	h5.6v24.2h5v-24.2h8.6L103.3,125.1z M61.4,144.9c0-3.3,2.1-4.5,5.9-5.2l7-1.3v9.6c-2.4,1-5,1.5-7.7,1.6
	C63.8,149.6,61.4,148.2,61.4,144.9 M68.1,124.6c-3.6,0.1-7.1,0.6-10.5,1.6v5c3.2-1.6,6.7-2.5,10.3-2.6c5.1,0,6.5,1.3,6.5,5.7v1.1
	l-8.1,1.1c-5.9,0.8-10.3,2.7-10.3,9c0,5.8,4.1,7.9,8.7,7.9c3.6,0,7.1-0.9,10.1-2.7l0.8,2.3h3.8v-18.6
	C79.4,127.5,76,124.6,68.1,124.6 M49.6,124.6c-3.2,0.1-6.3,1.5-8.5,3.8v-3.4h-6.2l-0.2,0.7c0.8,1.1,2.1,2.9,2.1,4.6v22.5h5v-22.3
	c1.9-0.7,4-1,6-1.1c1.4,0,2.7,0.1,4.1,0.2l0.4-4.8C51.4,124.7,50.5,124.6,49.6,124.6 M19.1,153.3c3.8-0.1,7.6-0.6,11.3-1.7l-0.7-5.2
	c-3.2,1.9-6.9,2.8-10.7,2.8c-9.3,0-13.2-4.6-13.2-15.8s3.9-15.8,13.2-15.8c3.7,0,7.4,1,10.7,2.8l0.7-5.1c-3.7-1.1-7.5-1.7-11.3-1.8
	c-12.7,0-19.2,6.7-19.2,19.9S6.4,153.3,19.1,153.3 M27.9,72.2c-2.6,0-4.5-1.3-3.6-4l18-56.5c2.9-0.3,5.8-0.4,8.7-0.4
	c12.4,0,20.8,2.5,20.8,12.9c0,9.9-7.9,32.7-15.5,40.1C50.1,70.3,41.8,72.2,27.9,72.2 M379.7,73.7c-8.7,0-13.7-3.6-13.7-12.9
	c0-11.6,7.9-35,16.9-44c4.6-4.6,10.1-6.8,17.5-6.8c8.7,0,13,3.7,13,12.2c0,11.3-8.8,38.3-18.2,46.2C390.8,72,385.3,73.9,379.7,73.7
	 M269.1,1.7h-14L237.4,58L216.5,1.7h-26.4l3.7,8l-23.1,72.4h14L203.6,23l22.4,59.1h17.2L269.1,1.7z M177.9,1.7h-64.8l3.7,8
	L93.7,82.1h61.2l3.1-10h-36.3c-2.6,0-4.6-1.2-3.7-4.1l7.3-22.7h27.1l3.1-10h-27.1l7.6-23.5h38.7L177.9,1.7z M19.3,1.7l3.8,8L0,82.1
	h27.2c15.5,0,29.5-2.5,40.9-10.4C82,61.9,91.3,40.9,91.3,24.6c0-18-15.3-22.9-37.4-22.9L19.3,1.7z M403.5,0.1
	c-14.5,0-25.5,3.7-34,9.9c-13.2,9.6-23.6,34.4-23.6,51.1s11.8,22.6,30.8,22.6c13.2,0,23.5-3.2,31.8-8.8c14.6-9.9,25-35.2,25-52
	C433.4,6.4,422,0.1,403.5,0.1 M319.4,0.1c-11.1,0-22.2,2.4-30,7.6c-6.4,4.4-10.7,10.6-10.7,18.9c0,18.8,31.7,22.8,31.7,34
	c0,9.1-9,13.6-20.1,13.6c-11.5,0-21-6.8-23.8-8.6L262.1,80c9,2.5,18.2,3.7,27.5,3.7c21.5,0,42.2-8.8,42.2-28.4
	c0-19.2-31.3-23.6-31.3-34.6c0-7.8,7.7-10.7,16.8-10.7c7.6,0,15,2.2,21.2,6.4L343,3C335.3,1.1,327.4,0.2,319.4,0.1"/>
</svg>
